<mxfile host="app.diagrams.net" agent="Mozilla/5.0 (Windows NT 10.0; Win64; x64) AppleWebKit/537.36 (KHTML, like Gecko) Chrome/136.0.0.0 Safari/537.36 Edg/136.0.0.0" version="27.0.3">
  <diagram name="Pagina-1" id="N0--iw08T_8rdahIGtSi">
    <mxGraphModel dx="753" dy="447" grid="1" gridSize="10" guides="1" tooltips="1" connect="1" arrows="1" fold="1" page="1" pageScale="1" pageWidth="827" pageHeight="1169" math="0" shadow="0">
      <root>
        <mxCell id="0" />
        <mxCell id="1" parent="0" />
        <mxCell id="Yxl9dvNCB8rbhJ9NwP4d-23" value="" style="group" vertex="1" connectable="0" parent="1">
          <mxGeometry x="320" y="240" width="160" height="90" as="geometry" />
        </mxCell>
        <mxCell id="Yxl9dvNCB8rbhJ9NwP4d-2" value="" style="points=[[0.03,0.36,0],[0.18,0,0],[0.5,0.34,0],[0.82,0,0],[0.97,0.36,0],[1,0.67,0],[0.975,0.975,0],[0.5,1,0],[0.025,0.975,0],[0,0.67,0]];verticalLabelPosition=bottom;sketch=0;html=1;verticalAlign=top;aspect=fixed;align=center;pointerEvents=1;shape=mxgraph.cisco19.wireless_access_point;fillColor=#005073;strokeColor=none;" vertex="1" parent="Yxl9dvNCB8rbhJ9NwP4d-23">
          <mxGeometry x="57" y="43" width="50" height="50" as="geometry" />
        </mxCell>
        <mxCell id="Yxl9dvNCB8rbhJ9NwP4d-9" value="&lt;p&gt;&lt;font style=&quot;font-size: 16px;&quot; face=&quot;Lucida Console&quot;&gt;ESP-32&lt;/font&gt;&lt;/p&gt;" style="text;html=1;align=center;verticalAlign=middle;resizable=0;points=[];autosize=1;strokeColor=none;fillColor=none;" vertex="1" parent="Yxl9dvNCB8rbhJ9NwP4d-23">
          <mxGeometry x="42" width="80" height="60" as="geometry" />
        </mxCell>
        <mxCell id="Yxl9dvNCB8rbhJ9NwP4d-13" value="" style="sketch=0;aspect=fixed;pointerEvents=1;shadow=0;dashed=0;html=1;strokeColor=none;labelPosition=center;verticalLabelPosition=bottom;verticalAlign=top;align=center;fillColor=#00188D;shape=mxgraph.mscae.enterprise.wireless_connection" vertex="1" parent="Yxl9dvNCB8rbhJ9NwP4d-23">
          <mxGeometry x="122" y="43" width="42" height="50" as="geometry" />
        </mxCell>
        <mxCell id="Yxl9dvNCB8rbhJ9NwP4d-17" value="" style="sketch=0;aspect=fixed;pointerEvents=1;shadow=0;dashed=0;html=1;strokeColor=none;labelPosition=center;verticalLabelPosition=bottom;verticalAlign=top;align=center;fillColor=#00188D;shape=mxgraph.mscae.enterprise.wireless_connection;flipH=1;" vertex="1" parent="Yxl9dvNCB8rbhJ9NwP4d-23">
          <mxGeometry y="43" width="42" height="50" as="geometry" />
        </mxCell>
        <mxCell id="Yxl9dvNCB8rbhJ9NwP4d-24" value="" style="group" vertex="1" connectable="0" parent="1">
          <mxGeometry x="570" y="230" width="140" height="110" as="geometry" />
        </mxCell>
        <mxCell id="Yxl9dvNCB8rbhJ9NwP4d-18" value="" style="rounded=0;whiteSpace=wrap;html=1;fillColor=#f5f5f5;strokeColor=#666666;fontColor=#333333;" vertex="1" parent="Yxl9dvNCB8rbhJ9NwP4d-24">
          <mxGeometry y="24" width="140" height="80" as="geometry" />
        </mxCell>
        <mxCell id="Yxl9dvNCB8rbhJ9NwP4d-8" value="" style="image;points=[];aspect=fixed;html=1;align=center;shadow=0;dashed=0;image=img/lib/allied_telesis/computer_and_terminals/Server_Desktop.svg;" vertex="1" parent="Yxl9dvNCB8rbhJ9NwP4d-24">
          <mxGeometry x="80" y="30" width="40" height="50.7" as="geometry" />
        </mxCell>
        <mxCell id="Yxl9dvNCB8rbhJ9NwP4d-15" value="&lt;font style=&quot;font-size: 15px;&quot; face=&quot;Lucida Console&quot;&gt;HTTP Server&lt;/font&gt;" style="text;html=1;align=center;verticalAlign=middle;resizable=0;points=[];autosize=1;strokeColor=none;fillColor=none;" vertex="1" parent="Yxl9dvNCB8rbhJ9NwP4d-24">
          <mxGeometry x="10" width="120" height="30" as="geometry" />
        </mxCell>
        <mxCell id="Yxl9dvNCB8rbhJ9NwP4d-16" value="&lt;i&gt;&lt;font style=&quot;font-size: 10px;&quot;&gt;Responsible for auth&lt;/font&gt;&lt;/i&gt;" style="text;html=1;align=center;verticalAlign=middle;resizable=0;points=[];autosize=1;strokeColor=none;fillColor=none;" vertex="1" parent="Yxl9dvNCB8rbhJ9NwP4d-24">
          <mxGeometry x="10" y="80" width="120" height="30" as="geometry" />
        </mxCell>
        <mxCell id="Yxl9dvNCB8rbhJ9NwP4d-20" value="" style="sketch=0;aspect=fixed;pointerEvents=1;shadow=0;dashed=0;html=1;strokeColor=none;labelPosition=center;verticalLabelPosition=bottom;verticalAlign=top;align=center;fillColor=#00188D;shape=mxgraph.mscae.enterprise.wireless_connection;flipH=1;" vertex="1" parent="Yxl9dvNCB8rbhJ9NwP4d-24">
          <mxGeometry x="20" y="32" width="42" height="50" as="geometry" />
        </mxCell>
        <mxCell id="Yxl9dvNCB8rbhJ9NwP4d-25" value="" style="group" vertex="1" connectable="0" parent="1">
          <mxGeometry x="40" y="220" width="170" height="130" as="geometry" />
        </mxCell>
        <mxCell id="Yxl9dvNCB8rbhJ9NwP4d-12" value="" style="rounded=0;whiteSpace=wrap;html=1;fillColor=#f5f5f5;strokeColor=#666666;fontColor=#333333;" vertex="1" parent="Yxl9dvNCB8rbhJ9NwP4d-25">
          <mxGeometry y="45" width="170" height="80" as="geometry" />
        </mxCell>
        <mxCell id="Yxl9dvNCB8rbhJ9NwP4d-3" value="" style="sketch=0;points=[[0.5,0,0],[1,0.5,0],[0.5,1,0],[0,0.5,0],[0.145,0.145,0],[0.8555,0.145,0],[0.855,0.8555,0],[0.145,0.855,0]];verticalLabelPosition=bottom;html=1;verticalAlign=top;aspect=fixed;align=center;pointerEvents=1;shape=mxgraph.cisco19.lock;fillColor=#005073;strokeColor=none;" vertex="1" parent="Yxl9dvNCB8rbhJ9NwP4d-25">
          <mxGeometry x="60" y="59" width="50" height="50" as="geometry" />
        </mxCell>
        <mxCell id="Yxl9dvNCB8rbhJ9NwP4d-4" value="" style="points=[[0,0.5,0],[0.24,0,0],[0.5,0.28,0],[0.995,0.475,0],[0.5,0.72,0],[0.24,1,0]];verticalLabelPosition=bottom;sketch=0;html=1;verticalAlign=top;aspect=fixed;align=center;pointerEvents=1;shape=mxgraph.cisco19.key;fillColor=#005073;strokeColor=none;direction=south;" vertex="1" parent="Yxl9dvNCB8rbhJ9NwP4d-25">
          <mxGeometry x="20" y="59" width="22.5" height="50" as="geometry" />
        </mxCell>
        <mxCell id="Yxl9dvNCB8rbhJ9NwP4d-10" value="&lt;p&gt;&lt;font style=&quot;font-size: 16px;&quot; face=&quot;Lucida Console&quot;&gt;Smart-Lock&lt;/font&gt;&lt;/p&gt;" style="text;html=1;align=center;verticalAlign=middle;resizable=0;points=[];autosize=1;strokeColor=none;fillColor=none;rounded=0;" vertex="1" parent="Yxl9dvNCB8rbhJ9NwP4d-25">
          <mxGeometry x="25" width="120" height="60" as="geometry" />
        </mxCell>
        <mxCell id="Yxl9dvNCB8rbhJ9NwP4d-19" value="" style="sketch=0;aspect=fixed;pointerEvents=1;shadow=0;dashed=0;html=1;strokeColor=none;labelPosition=center;verticalLabelPosition=bottom;verticalAlign=top;align=center;fillColor=#00188D;shape=mxgraph.mscae.enterprise.wireless_connection" vertex="1" parent="Yxl9dvNCB8rbhJ9NwP4d-25">
          <mxGeometry x="120" y="59" width="42" height="50" as="geometry" />
        </mxCell>
      </root>
    </mxGraphModel>
  </diagram>
</mxfile>
